<?xml version="1.0" standalone="no"?>
<!DOCTYPE svg PUBLIC "-//W3C//DTD SVG 20010904//EN"
 "http://www.w3.org/TR/2001/REC-SVG-20010904/DTD/svg10.dtd">
<svg version="1.0" xmlns="http://www.w3.org/2000/svg"
 width="600.000000pt" height="353.000000pt" viewBox="0 0 600.000000 353.000000"
 preserveAspectRatio="xMidYMid meet">
<g transform="translate(0.000000,353.000000) scale(0.100000,-0.100000)"
fill="#000000" stroke="none">
<path d="M3999 2472 c-98 -63 -218 -231 -343 -482 -45 -91 -99 -210 -120 -265
-58 -150 -49 -141 -163 -149 -54 -4 -107 -10 -118 -13 -17 -5 -18 -4 -6 11 21
25 -3 20 -56 -13 -27 -16 -67 -35 -90 -42 -55 -16 -93 5 -93 51 0 34 0 33 32
21 54 -20 125 45 82 76 -10 7 -35 13 -57 13 -31 0 -46 -7 -73 -34 -19 -19 -34
-44 -34 -57 0 -26 -40 -82 -76 -106 -23 -14 -26 -14 -44 2 -10 9 -24 40 -30
68 -11 51 -11 51 46 106 67 65 97 111 132 200 22 56 26 83 26 176 1 99 -2 116
-26 167 -14 31 -36 62 -48 68 -105 56 -183 -169 -184 -530 0 -182 7 -224 51
-272 28 -31 81 -23 119 18 19 19 34 41 34 47 0 7 11 -1 24 -18 21 -26 31 -30
73 -30 32 0 66 9 103 27 47 23 73 28 178 33 84 4 122 3 122 -5 0 -5 -15 -61
-34 -123 -37 -122 -64 -262 -53 -274 19 -19 46 40 71 156 30 134 62 248 74
255 12 7 622 48 638 42 11 -4 14 -40 14 -201 0 -161 2 -195 14 -195 19 0 24
38 32 233 6 140 9 160 25 170 23 14 25 27 4 27 -13 0 -15 34 -15 248 0 272
-10 393 -40 493 -37 126 -100 158 -191 101z m104 -32 c51 -60 76 -265 77 -618
0 -138 -3 -184 -12 -187 -18 -5 -618 -38 -623 -34 -6 7 106 276 176 419 39 80
99 188 134 240 68 103 172 210 203 210 11 0 31 -13 45 -30z m-1150 -233 c24
-47 34 -179 18 -262 -15 -80 -69 -188 -126 -250 -46 -50 -46 -50 -40 80 13
281 61 483 112 473 9 -2 25 -20 36 -41z m137 -571 c0 -17 -34 -31 -50 -21 -16
10 8 35 31 35 11 0 19 -6 19 -14z"/>
<path d="M2581 2298 c-72 -37 -93 -154 -92 -512 0 -147 3 -277 6 -287 8 -25
35 -24 35 1 0 20 0 20 20 0 25 -25 87 -26 116 -2 31 25 44 55 44 102 0 31 -6
47 -26 65 -15 14 -36 25 -48 25 -26 0 -86 -36 -86 -50 0 -6 -5 -8 -11 -5 -6 4
8 26 33 53 116 124 169 247 169 392 0 90 -15 144 -54 185 -37 40 -72 50 -106
33z m58 -28 c10 -5 29 -33 42 -62 32 -73 32 -197 -1 -283 -32 -83 -132 -249
-142 -235 -8 11 11 439 21 489 12 57 34 101 52 101 6 0 18 -4 28 -10z m1 -630
c24 -24 25 -51 5 -89 -26 -50 -65 -50 -91 1 -14 27 -13 32 6 63 19 31 32 42
53 44 4 1 16 -8 27 -19z"/>
<path d="M1921 2248 c-78 -42 -131 -150 -131 -271 0 -67 27 -189 56 -254 13
-31 24 -57 24 -60 0 -2 -15 -1 -34 2 -71 14 -130 -47 -124 -128 2 -35 8 -44
31 -55 39 -19 86 -8 148 34 52 35 52 35 78 11 37 -35 71 -51 83 -39 6 6 -1 17
-21 31 -54 39 -57 56 -18 104 101 124 140 228 141 377 0 92 -3 112 -26 161
-45 98 -124 131 -207 87z m121 -28 c57 -45 82 -189 54 -320 -17 -83 -70 -196
-116 -250 -35 -41 -35 -41 -80 67 -64 152 -81 297 -46 399 33 101 127 153 188
104z m-173 -612 c17 -18 30 -37 28 -42 -2 -6 -28 -24 -59 -40 -48 -26 -58 -29
-72 -17 -20 17 -21 53 -1 91 26 50 61 52 104 8z"/>
<path d="M2411 1686 c-6 -7 -15 -36 -22 -64 -13 -61 -39 -98 -62 -89 -14 5
-17 20 -17 72 0 57 -2 65 -19 65 -34 0 -43 -73 -17 -135 13 -30 20 -35 49 -35
35 0 67 24 67 50 0 22 18 -2 22 -29 3 -22 32 -52 40 -41 2 3 2 51 0 107 -3 73
-8 103 -17 107 -8 3 -18 -1 -24 -8z"/>
<path d="M2132 1660 c-49 -21 -67 -127 -26 -161 27 -22 75 -15 101 15 26 31
32 101 11 129 -17 21 -57 29 -86 17z m52 -26 c19 -50 -5 -127 -38 -122 -17 3
-21 9 -19 40 2 40 28 98 42 98 5 0 12 -7 15 -16z"/>
</g>
</svg>
